<mxfile host="app.diagrams.net" modified="2022-10-28T20:35:56.088Z" agent="5.0 (Windows NT 10.0; Win64; x64) AppleWebKit/537.36 (KHTML, like Gecko) Chrome/106.0.0.0 Safari/537.36 Edg/106.0.1370.52" etag="vpNnDOC-_j3OllAI1lyx" version="20.5.1" type="github">
  <diagram id="kgpKYQtTHZ0yAKxKKP6v" name="Page-1">
    <mxGraphModel dx="3435" dy="1444" grid="1" gridSize="10" guides="1" tooltips="1" connect="1" arrows="1" fold="1" page="1" pageScale="1" pageWidth="850" pageHeight="1100" math="0" shadow="0">
      <root>
        <mxCell id="0" />
        <mxCell id="1" parent="0" />
        <mxCell id="tp_FHZZYY3tg1q9kBMh7-71" value="" style="whiteSpace=wrap;html=1;aspect=fixed;strokeWidth=20;fontFamily=Georgia;fontColor=#000000;fillColor=#FAFEFF;strokeColor=#190033;" vertex="1" parent="1">
          <mxGeometry x="-280" y="30" width="1095" height="1095" as="geometry" />
        </mxCell>
        <mxCell id="tp_FHZZYY3tg1q9kBMh7-68" value="" style="rounded=1;whiteSpace=wrap;html=1;fontFamily=Georgia;fontColor=none;fillColor=#B3CAE0;strokeColor=none;" vertex="1" parent="1">
          <mxGeometry x="230" y="875" width="160" height="175" as="geometry" />
        </mxCell>
        <mxCell id="tp_FHZZYY3tg1q9kBMh7-67" value="" style="rounded=1;whiteSpace=wrap;html=1;fontFamily=Georgia;fontColor=none;fillColor=#B3CAE0;strokeColor=none;" vertex="1" parent="1">
          <mxGeometry x="340" y="670" width="140" height="100" as="geometry" />
        </mxCell>
        <mxCell id="tp_FHZZYY3tg1q9kBMh7-63" value="" style="rounded=1;whiteSpace=wrap;html=1;fontFamily=Georgia;fontColor=#000000;fillColor=#E0E096;strokeColor=none;" vertex="1" parent="1">
          <mxGeometry x="70" y="440" width="420" height="130" as="geometry" />
        </mxCell>
        <mxCell id="tp_FHZZYY3tg1q9kBMh7-60" value="" style="rounded=1;whiteSpace=wrap;html=1;fontFamily=Georgia;fontColor=#000000;fillColor=#B5E0C5;strokeColor=none;" vertex="1" parent="1">
          <mxGeometry x="515" y="310" width="170" height="250" as="geometry" />
        </mxCell>
        <mxCell id="tp_FHZZYY3tg1q9kBMh7-56" value="" style="rounded=1;whiteSpace=wrap;html=1;fontFamily=Georgia;fontColor=none;fillColor=#B3CAE0;strokeColor=none;" vertex="1" parent="1">
          <mxGeometry x="-160" y="120" width="220" height="450" as="geometry" />
        </mxCell>
        <mxCell id="tp_FHZZYY3tg1q9kBMh7-55" value="" style="rounded=1;whiteSpace=wrap;html=1;fillColor=#C3DEE0;strokeColor=none;fontFamily=Georgia;" vertex="1" parent="1">
          <mxGeometry x="72.51" y="110" width="420" height="320" as="geometry" />
        </mxCell>
        <mxCell id="tp_FHZZYY3tg1q9kBMh7-54" style="edgeStyle=orthogonalEdgeStyle;rounded=0;orthogonalLoop=1;jettySize=auto;html=1;strokeColor=#000000;strokeWidth=2;fillColor=#000000;exitX=0;exitY=0.75;exitDx=0;exitDy=0;fontFamily=Georgia;" edge="1" parent="1" source="tp_FHZZYY3tg1q9kBMh7-1" target="tp_FHZZYY3tg1q9kBMh7-24">
          <mxGeometry relative="1" as="geometry" />
        </mxCell>
        <mxCell id="tp_FHZZYY3tg1q9kBMh7-1" value="&lt;font&gt;SMART-MR Cohort data&lt;br&gt;.gen.gz format&lt;br&gt;.sample format&lt;/font&gt;" style="shape=parallelogram;html=1;strokeWidth=2;perimeter=parallelogramPerimeter;whiteSpace=wrap;rounded=1;arcSize=12;size=0.23;fontFamily=Georgia;" vertex="1" parent="1">
          <mxGeometry x="180" y="120" width="230" height="60" as="geometry" />
        </mxCell>
        <mxCell id="tp_FHZZYY3tg1q9kBMh7-3" value="" style="shape=flexArrow;endArrow=classic;html=1;rounded=0;strokeWidth=2;strokeColor=#190033;fillColor=#000000;entryX=0.5;entryY=0;entryDx=0;entryDy=0;fontFamily=Georgia;" edge="1" parent="1" target="tp_FHZZYY3tg1q9kBMh7-4">
          <mxGeometry width="50" height="50" relative="1" as="geometry">
            <mxPoint x="280" y="180" as="sourcePoint" />
            <mxPoint x="280" y="250" as="targetPoint" />
            <Array as="points">
              <mxPoint x="280" y="240" />
              <mxPoint x="160" y="240" />
            </Array>
          </mxGeometry>
        </mxCell>
        <mxCell id="tp_FHZZYY3tg1q9kBMh7-14" value="" style="edgeStyle=orthogonalEdgeStyle;rounded=0;orthogonalLoop=1;jettySize=auto;html=1;strokeColor=#000000;strokeWidth=2;fillColor=#000000;fontFamily=Georgia;" edge="1" parent="1" source="tp_FHZZYY3tg1q9kBMh7-4" target="tp_FHZZYY3tg1q9kBMh7-11">
          <mxGeometry relative="1" as="geometry" />
        </mxCell>
        <mxCell id="tp_FHZZYY3tg1q9kBMh7-4" value="Convert .gen.gz to &lt;i&gt;&lt;b&gt;filtered&lt;/b&gt; &lt;/i&gt;.bgen format" style="rounded=1;whiteSpace=wrap;html=1;absoluteArcSize=1;arcSize=14;strokeWidth=2;fillColor=#FFFFFF;fontFamily=Georgia;" vertex="1" parent="1">
          <mxGeometry x="110" y="330" width="100" height="70" as="geometry" />
        </mxCell>
        <mxCell id="tp_FHZZYY3tg1q9kBMh7-15" value="" style="edgeStyle=orthogonalEdgeStyle;rounded=0;orthogonalLoop=1;jettySize=auto;html=1;strokeColor=#000000;strokeWidth=2;fillColor=#000000;fontFamily=Georgia;" edge="1" parent="1" source="tp_FHZZYY3tg1q9kBMh7-6" target="tp_FHZZYY3tg1q9kBMh7-12">
          <mxGeometry relative="1" as="geometry" />
        </mxCell>
        <mxCell id="tp_FHZZYY3tg1q9kBMh7-18" style="edgeStyle=orthogonalEdgeStyle;rounded=0;orthogonalLoop=1;jettySize=auto;html=1;strokeColor=#000000;strokeWidth=2;fillColor=#000000;fontFamily=Georgia;" edge="1" parent="1" source="tp_FHZZYY3tg1q9kBMh7-6" target="tp_FHZZYY3tg1q9kBMh7-9">
          <mxGeometry relative="1" as="geometry" />
        </mxCell>
        <mxCell id="tp_FHZZYY3tg1q9kBMh7-6" value="Convert .gen.gz to .bgen format" style="rounded=1;whiteSpace=wrap;html=1;absoluteArcSize=1;arcSize=14;strokeWidth=2;fillColor=#FFFFFF;fontFamily=Georgia;" vertex="1" parent="1">
          <mxGeometry x="360" y="330" width="100" height="70" as="geometry" />
        </mxCell>
        <mxCell id="tp_FHZZYY3tg1q9kBMh7-7" value="" style="shape=flexArrow;endArrow=classic;html=1;rounded=0;strokeWidth=2;strokeColor=#000000;fillColor=#190033;entryX=0.5;entryY=0;entryDx=0;entryDy=0;exitX=0.461;exitY=0.983;exitDx=0;exitDy=0;exitPerimeter=0;fontFamily=Georgia;" edge="1" parent="1" source="tp_FHZZYY3tg1q9kBMh7-1" target="tp_FHZZYY3tg1q9kBMh7-6">
          <mxGeometry width="50" height="50" relative="1" as="geometry">
            <mxPoint x="290" y="190" as="sourcePoint" />
            <mxPoint x="170" y="340" as="targetPoint" />
            <Array as="points">
              <mxPoint x="286" y="240" />
              <mxPoint x="410" y="240" />
            </Array>
          </mxGeometry>
        </mxCell>
        <mxCell id="tp_FHZZYY3tg1q9kBMh7-19" style="edgeStyle=orthogonalEdgeStyle;rounded=0;orthogonalLoop=1;jettySize=auto;html=1;entryX=1;entryY=0.5;entryDx=0;entryDy=0;strokeColor=#000000;strokeWidth=2;fillColor=#000000;fontFamily=Georgia;" edge="1" parent="1" source="tp_FHZZYY3tg1q9kBMh7-9" target="tp_FHZZYY3tg1q9kBMh7-12">
          <mxGeometry relative="1" as="geometry">
            <Array as="points">
              <mxPoint x="600" y="485" />
            </Array>
          </mxGeometry>
        </mxCell>
        <mxCell id="tp_FHZZYY3tg1q9kBMh7-9" value="Genererate .bgen index files .bgi" style="rounded=1;whiteSpace=wrap;html=1;absoluteArcSize=1;arcSize=14;strokeWidth=2;fillColor=#FFFFFF;fontFamily=Georgia;" vertex="1" parent="1">
          <mxGeometry x="550" y="330" width="100" height="70" as="geometry" />
        </mxCell>
        <mxCell id="tp_FHZZYY3tg1q9kBMh7-17" style="edgeStyle=orthogonalEdgeStyle;rounded=0;orthogonalLoop=1;jettySize=auto;html=1;entryX=0;entryY=0.5;entryDx=0;entryDy=0;strokeColor=#000000;strokeWidth=2;fillColor=#000000;fontFamily=Georgia;" edge="1" parent="1" source="tp_FHZZYY3tg1q9kBMh7-11" target="tp_FHZZYY3tg1q9kBMh7-12">
          <mxGeometry relative="1" as="geometry" />
        </mxCell>
        <mxCell id="tp_FHZZYY3tg1q9kBMh7-11" value="Calculate LOCO predictions from data subset" style="rounded=1;whiteSpace=wrap;html=1;absoluteArcSize=1;arcSize=14;strokeWidth=2;fillColor=#FFFFFF;fontFamily=Georgia;" vertex="1" parent="1">
          <mxGeometry x="110" y="450" width="100" height="70" as="geometry" />
        </mxCell>
        <mxCell id="tp_FHZZYY3tg1q9kBMh7-21" value="" style="edgeStyle=orthogonalEdgeStyle;rounded=0;orthogonalLoop=1;jettySize=auto;html=1;strokeColor=#000000;strokeWidth=2;fillColor=#000000;fontFamily=Georgia;" edge="1" parent="1" source="tp_FHZZYY3tg1q9kBMh7-12" target="tp_FHZZYY3tg1q9kBMh7-20">
          <mxGeometry relative="1" as="geometry" />
        </mxCell>
        <mxCell id="tp_FHZZYY3tg1q9kBMh7-12" value="Run GWAS on chromosomes" style="rounded=1;whiteSpace=wrap;html=1;absoluteArcSize=1;arcSize=14;strokeWidth=2;fillColor=#FFFFFF;fontFamily=Georgia;" vertex="1" parent="1">
          <mxGeometry x="360" y="450" width="100" height="70" as="geometry" />
        </mxCell>
        <mxCell id="tp_FHZZYY3tg1q9kBMh7-23" value="" style="edgeStyle=orthogonalEdgeStyle;rounded=0;orthogonalLoop=1;jettySize=auto;html=1;strokeColor=#000000;strokeWidth=2;fillColor=#000000;fontFamily=Georgia;" edge="1" parent="1" source="tp_FHZZYY3tg1q9kBMh7-20" target="tp_FHZZYY3tg1q9kBMh7-22">
          <mxGeometry relative="1" as="geometry" />
        </mxCell>
        <mxCell id="tp_FHZZYY3tg1q9kBMh7-20" value="Wrap up individual chromosomes" style="rounded=1;whiteSpace=wrap;html=1;absoluteArcSize=1;arcSize=14;strokeWidth=2;fillColor=#FFFFFF;fontFamily=Georgia;" vertex="1" parent="1">
          <mxGeometry x="360" y="590" width="100" height="60" as="geometry" />
        </mxCell>
        <mxCell id="tp_FHZZYY3tg1q9kBMh7-28" value="" style="edgeStyle=orthogonalEdgeStyle;rounded=0;orthogonalLoop=1;jettySize=auto;html=1;strokeColor=#000000;strokeWidth=2;fillColor=#000000;fontFamily=Georgia;" edge="1" parent="1" source="tp_FHZZYY3tg1q9kBMh7-22" target="tp_FHZZYY3tg1q9kBMh7-27">
          <mxGeometry relative="1" as="geometry" />
        </mxCell>
        <mxCell id="tp_FHZZYY3tg1q9kBMh7-22" value="Calculate P-values from -LOG10P values" style="rounded=1;whiteSpace=wrap;html=1;absoluteArcSize=1;arcSize=14;strokeWidth=2;fillColor=#FFFFFF;fontFamily=Georgia;" vertex="1" parent="1">
          <mxGeometry x="360" y="690" width="100" height="60" as="geometry" />
        </mxCell>
        <mxCell id="tp_FHZZYY3tg1q9kBMh7-25" value="" style="edgeStyle=orthogonalEdgeStyle;rounded=0;orthogonalLoop=1;jettySize=auto;html=1;strokeColor=#000000;strokeWidth=2;fillColor=#000000;fontFamily=Georgia;" edge="1" parent="1" source="tp_FHZZYY3tg1q9kBMh7-24" target="tp_FHZZYY3tg1q9kBMh7-11">
          <mxGeometry relative="1" as="geometry" />
        </mxCell>
        <mxCell id="tp_FHZZYY3tg1q9kBMh7-65" style="edgeStyle=orthogonalEdgeStyle;rounded=0;orthogonalLoop=1;jettySize=auto;html=1;entryX=0;entryY=0.5;entryDx=0;entryDy=0;strokeColor=#000000;strokeWidth=2;fontFamily=Georgia;fontColor=#000000;fillColor=#000000;exitX=0.5;exitY=0.771;exitDx=0;exitDy=0;exitPerimeter=0;" edge="1" parent="1" source="tp_FHZZYY3tg1q9kBMh7-24" target="tp_FHZZYY3tg1q9kBMh7-12">
          <mxGeometry relative="1" as="geometry">
            <Array as="points">
              <mxPoint x="-45" y="550" />
              <mxPoint x="280" y="550" />
              <mxPoint x="280" y="485" />
            </Array>
          </mxGeometry>
        </mxCell>
        <mxCell id="tp_FHZZYY3tg1q9kBMh7-24" value="phenotypes, covariates" style="strokeWidth=2;html=1;shape=mxgraph.flowchart.multi-document;whiteSpace=wrap;fillColor=#FFFFFF;fontFamily=Georgia;" vertex="1" parent="1">
          <mxGeometry x="-140" y="442.5" width="190" height="85" as="geometry" />
        </mxCell>
        <mxCell id="tp_FHZZYY3tg1q9kBMh7-30" value="" style="edgeStyle=orthogonalEdgeStyle;rounded=0;orthogonalLoop=1;jettySize=auto;html=1;strokeColor=#000000;strokeWidth=2;fillColor=#000000;fontFamily=Georgia;entryX=0.5;entryY=0;entryDx=0;entryDy=0;" edge="1" parent="1" source="tp_FHZZYY3tg1q9kBMh7-27" target="tp_FHZZYY3tg1q9kBMh7-29">
          <mxGeometry relative="1" as="geometry">
            <mxPoint x="310" y="880" as="targetPoint" />
            <Array as="points">
              <mxPoint x="410" y="860" />
              <mxPoint x="310" y="860" />
            </Array>
          </mxGeometry>
        </mxCell>
        <mxCell id="tp_FHZZYY3tg1q9kBMh7-35" style="edgeStyle=orthogonalEdgeStyle;rounded=0;orthogonalLoop=1;jettySize=auto;html=1;entryX=0.5;entryY=0;entryDx=0;entryDy=0;strokeColor=#000000;strokeWidth=2;fillColor=#000000;exitX=0.5;exitY=1;exitDx=0;exitDy=0;fontFamily=Georgia;" edge="1" parent="1" source="tp_FHZZYY3tg1q9kBMh7-27" target="tp_FHZZYY3tg1q9kBMh7-31">
          <mxGeometry relative="1" as="geometry">
            <Array as="points">
              <mxPoint x="410" y="860" />
              <mxPoint x="500" y="860" />
            </Array>
          </mxGeometry>
        </mxCell>
        <mxCell id="tp_FHZZYY3tg1q9kBMh7-27" value="gzip files" style="rounded=1;whiteSpace=wrap;html=1;absoluteArcSize=1;arcSize=14;strokeWidth=2;fillColor=#FFFFFF;fontFamily=Georgia;" vertex="1" parent="1">
          <mxGeometry x="360" y="800" width="100" height="40" as="geometry" />
        </mxCell>
        <mxCell id="tp_FHZZYY3tg1q9kBMh7-29" value="Plot out results" style="rounded=1;whiteSpace=wrap;html=1;absoluteArcSize=1;arcSize=14;strokeWidth=2;fillColor=#FFFFFF;fontFamily=Georgia;" vertex="1" parent="1">
          <mxGeometry x="260" y="900" width="100" height="50" as="geometry" />
        </mxCell>
        <mxCell id="tp_FHZZYY3tg1q9kBMh7-31" value="Run QC on raw results" style="rounded=1;whiteSpace=wrap;html=1;absoluteArcSize=1;arcSize=14;strokeWidth=2;fillColor=#FFFFFF;fontFamily=Georgia;" vertex="1" parent="1">
          <mxGeometry x="450" y="900" width="100" height="50" as="geometry" />
        </mxCell>
        <mxCell id="tp_FHZZYY3tg1q9kBMh7-37" value="&lt;i&gt;&lt;b&gt;&lt;u&gt;PLINK2&lt;/u&gt;&lt;/b&gt;&lt;/i&gt;" style="text;html=1;align=center;verticalAlign=middle;resizable=0;points=[];autosize=1;strokeColor=none;fillColor=none;fontFamily=Georgia;" vertex="1" parent="1">
          <mxGeometry x="247.5" y="280" width="70" height="30" as="geometry" />
        </mxCell>
        <mxCell id="tp_FHZZYY3tg1q9kBMh7-38" value="" style="verticalLabelPosition=bottom;verticalAlign=top;html=1;shape=mxgraph.flowchart.parallel_mode;pointerEvents=1;fillColor=#FFFFFF;rotation=90;fontFamily=Georgia;" vertex="1" parent="1">
          <mxGeometry x="253.21" y="186.48" width="58.59" height="45" as="geometry" />
        </mxCell>
        <mxCell id="tp_FHZZYY3tg1q9kBMh7-59" value="&lt;b style=&quot;&quot;&gt;&lt;i&gt;&lt;u&gt;RStudio&lt;/u&gt;&lt;/i&gt;&lt;/b&gt;" style="text;html=1;align=center;verticalAlign=middle;resizable=0;points=[];autosize=1;strokeColor=none;fillColor=none;fontFamily=Georgia;fontColor=none;" vertex="1" parent="1">
          <mxGeometry x="-20" y="280" width="70" height="30" as="geometry" />
        </mxCell>
        <mxCell id="tp_FHZZYY3tg1q9kBMh7-62" value="&lt;i&gt;&lt;b&gt;&lt;u&gt;BGENIX&lt;/u&gt;&lt;/b&gt;&lt;/i&gt;" style="text;html=1;align=center;verticalAlign=middle;resizable=0;points=[];autosize=1;strokeColor=none;fillColor=none;fontFamily=Georgia;fontColor=#000000;" vertex="1" parent="1">
          <mxGeometry x="605" y="430" width="80" height="30" as="geometry" />
        </mxCell>
        <mxCell id="tp_FHZZYY3tg1q9kBMh7-66" value="&lt;i&gt;&lt;b&gt;REGENIE&lt;/b&gt;&lt;/i&gt;" style="text;html=1;align=center;verticalAlign=middle;resizable=0;points=[];autosize=1;strokeColor=none;fillColor=none;fontFamily=Georgia;fontColor=#000000;" vertex="1" parent="1">
          <mxGeometry x="240" y="450" width="80" height="30" as="geometry" />
        </mxCell>
        <mxCell id="tp_FHZZYY3tg1q9kBMh7-72" value="&lt;i&gt;&lt;b&gt;&lt;u&gt;&lt;font style=&quot;font-size: 16px;&quot;&gt;~bash&lt;/font&gt;&lt;/u&gt;&lt;/b&gt;&lt;/i&gt;" style="text;html=1;align=center;verticalAlign=middle;resizable=0;points=[];autosize=1;strokeColor=none;fillColor=none;fontFamily=Georgia;fontColor=#000000;" vertex="1" parent="1">
          <mxGeometry x="-265" y="50" width="70" height="30" as="geometry" />
        </mxCell>
        <mxCell id="tp_FHZZYY3tg1q9kBMh7-73" value="" style="rounded=1;whiteSpace=wrap;html=1;fontFamily=Georgia;fontColor=none;fillColor=#B3CAE0;strokeColor=none;rotation=90;" vertex="1" parent="1">
          <mxGeometry x="347.11" y="848.87" width="108.11" height="342.81" as="geometry" />
        </mxCell>
        <mxCell id="tp_FHZZYY3tg1q9kBMh7-34" value="Plot out QC&#39;ed results" style="rounded=1;whiteSpace=wrap;html=1;absoluteArcSize=1;arcSize=14;strokeWidth=2;fillColor=#FFFFFF;fontFamily=Georgia;" vertex="1" parent="1">
          <mxGeometry x="450" y="990" width="100" height="50" as="geometry" />
        </mxCell>
        <mxCell id="tp_FHZZYY3tg1q9kBMh7-36" value="" style="edgeStyle=orthogonalEdgeStyle;rounded=0;orthogonalLoop=1;jettySize=auto;html=1;strokeColor=#000000;strokeWidth=2;fillColor=#000000;fontFamily=Georgia;" edge="1" parent="1" source="tp_FHZZYY3tg1q9kBMh7-31" target="tp_FHZZYY3tg1q9kBMh7-34">
          <mxGeometry relative="1" as="geometry" />
        </mxCell>
      </root>
    </mxGraphModel>
  </diagram>
</mxfile>
